<mxfile host="app.diagrams.net" agent="Mozilla/5.0 (Windows NT 10.0; Win64; x64) AppleWebKit/537.36 (KHTML, like Gecko) Chrome/132.0.0.0 Safari/537.36" version="26.0.14">
  <diagram name="Page-1" id="13e1069c-82ec-6db2-03f1-153e76fe0fe0">
    <mxGraphModel dx="927" dy="815" grid="1" gridSize="10" guides="1" tooltips="1" connect="1" arrows="1" fold="1" page="1" pageScale="1" pageWidth="1100" pageHeight="850" background="none" math="0" shadow="0">
      <root>
        <mxCell id="0" />
        <mxCell id="1" parent="0" />
        <mxCell id="7baba1c4bc27f4b0-2" value=":RouteMap" style="shape=umlLifeline;perimeter=lifelinePerimeter;whiteSpace=wrap;html=1;container=1;collapsible=0;recursiveResize=0;outlineConnect=0;rounded=1;shadow=0;comic=0;labelBackgroundColor=none;strokeWidth=1;fontFamily=Verdana;fontSize=12;align=center;fillColor=#f8cecc;strokeColor=#b85450;" parent="1" vertex="1">
          <mxGeometry x="240" y="80" width="100" height="580" as="geometry" />
        </mxCell>
        <mxCell id="7baba1c4bc27f4b0-10" value="" style="html=1;points=[];perimeter=orthogonalPerimeter;rounded=0;shadow=0;comic=0;labelBackgroundColor=none;strokeWidth=1;fontFamily=Verdana;fontSize=12;align=center;fillColor=#f8cecc;strokeColor=#b85450;" parent="7baba1c4bc27f4b0-2" vertex="1">
          <mxGeometry x="45" y="100" width="10" height="430" as="geometry" />
        </mxCell>
        <mxCell id="CLaZZutjWYcp5HNN7W0f-3" value="" style="endArrow=classic;html=1;rounded=0;" parent="7baba1c4bc27f4b0-2" edge="1">
          <mxGeometry width="50" height="50" relative="1" as="geometry">
            <mxPoint x="57" y="250" as="sourcePoint" />
            <mxPoint x="50" y="290" as="targetPoint" />
            <Array as="points">
              <mxPoint x="100" y="250" />
              <mxPoint x="100" y="290" />
            </Array>
          </mxGeometry>
        </mxCell>
        <mxCell id="CLaZZutjWYcp5HNN7W0f-6" value="" style="endArrow=open;endSize=12;dashed=1;html=1;rounded=0;entryX=0.9;entryY=0.616;entryDx=0;entryDy=0;entryPerimeter=0;" parent="7baba1c4bc27f4b0-2" edge="1">
          <mxGeometry width="160" relative="1" as="geometry">
            <mxPoint x="45" y="329.99999999999994" as="sourcePoint" />
            <mxPoint x="-90.5" y="329.99999999999994" as="targetPoint" />
          </mxGeometry>
        </mxCell>
        <mxCell id="CLaZZutjWYcp5HNN7W0f-2" value="" style="endArrow=classic;html=1;rounded=0;exitX=1.3;exitY=0.163;exitDx=0;exitDy=0;exitPerimeter=0;" parent="7baba1c4bc27f4b0-2" source="7baba1c4bc27f4b0-10" edge="1">
          <mxGeometry width="50" height="50" relative="1" as="geometry">
            <mxPoint x="74" y="170.04999999999995" as="sourcePoint" />
            <mxPoint x="52" y="210" as="targetPoint" />
            <Array as="points">
              <mxPoint x="90" y="170" />
              <mxPoint x="90" y="209" />
            </Array>
          </mxGeometry>
        </mxCell>
        <mxCell id="7baba1c4bc27f4b0-3" value=":Notification" style="shape=umlLifeline;perimeter=lifelinePerimeter;whiteSpace=wrap;html=1;container=1;collapsible=0;recursiveResize=0;outlineConnect=0;rounded=1;shadow=0;comic=0;labelBackgroundColor=none;strokeWidth=1;fontFamily=Verdana;fontSize=12;align=center;fillColor=#f8cecc;strokeColor=#b85450;" parent="1" vertex="1">
          <mxGeometry x="570" y="80" width="190" height="640" as="geometry" />
        </mxCell>
        <mxCell id="7baba1c4bc27f4b0-6" value=":Step" style="shape=umlLifeline;perimeter=lifelinePerimeter;whiteSpace=wrap;html=1;container=1;collapsible=0;recursiveResize=0;outlineConnect=0;rounded=1;shadow=0;comic=0;labelBackgroundColor=none;strokeWidth=1;fontFamily=Verdana;fontSize=12;align=center;fillColor=#f8cecc;strokeColor=#b85450;" parent="7baba1c4bc27f4b0-3" vertex="1">
          <mxGeometry x="-160" width="350" height="640" as="geometry" />
        </mxCell>
        <mxCell id="7baba1c4bc27f4b0-28" value="" style="html=1;points=[];perimeter=orthogonalPerimeter;rounded=0;shadow=0;comic=0;labelBackgroundColor=none;strokeWidth=1;fontFamily=Verdana;fontSize=12;align=center;fillColor=#f8cecc;strokeColor=#b85450;" parent="7baba1c4bc27f4b0-6" vertex="1">
          <mxGeometry x="70" y="340" width="10" height="240" as="geometry" />
        </mxCell>
        <mxCell id="CLaZZutjWYcp5HNN7W0f-21" value="loop" style="shape=umlFrame;whiteSpace=wrap;html=1;pointerEvents=0;fillColor=#f8cecc;strokeColor=#b85450;" parent="7baba1c4bc27f4b0-6" vertex="1">
          <mxGeometry x="-140" y="340" width="540" height="260" as="geometry" />
        </mxCell>
        <mxCell id="CLaZZutjWYcp5HNN7W0f-27" value="alt" style="shape=umlFrame;whiteSpace=wrap;html=1;pointerEvents=0;fillColor=#f8cecc;strokeColor=#b85450;" parent="7baba1c4bc27f4b0-6" vertex="1">
          <mxGeometry x="70" y="440" width="300" height="160" as="geometry" />
        </mxCell>
        <mxCell id="CLaZZutjWYcp5HNN7W0f-30" value="" style="endArrow=none;dashed=1;html=1;dashPattern=1 3;strokeWidth=2;rounded=0;exitX=0.003;exitY=0.503;exitDx=0;exitDy=0;exitPerimeter=0;entryX=0.994;entryY=0.492;entryDx=0;entryDy=0;entryPerimeter=0;" parent="7baba1c4bc27f4b0-6" source="CLaZZutjWYcp5HNN7W0f-27" target="CLaZZutjWYcp5HNN7W0f-27" edge="1">
          <mxGeometry width="50" height="50" relative="1" as="geometry">
            <mxPoint x="90" y="360" as="sourcePoint" />
            <mxPoint x="140" y="310" as="targetPoint" />
          </mxGeometry>
        </mxCell>
        <mxCell id="CLaZZutjWYcp5HNN7W0f-19" value="Send Notification" style="text;html=1;align=center;verticalAlign=middle;whiteSpace=wrap;rounded=0;" parent="7baba1c4bc27f4b0-6" vertex="1">
          <mxGeometry x="260" y="390" width="60" height="30" as="geometry" />
        </mxCell>
        <mxCell id="CLaZZutjWYcp5HNN7W0f-18" value="Select ApprovePerson" style="text;html=1;align=center;verticalAlign=middle;whiteSpace=wrap;rounded=0;" parent="7baba1c4bc27f4b0-6" vertex="1">
          <mxGeometry x="100" y="370" width="110" height="30" as="geometry" />
        </mxCell>
        <mxCell id="UrRBeOzWYuMbIGYijwHK-1" value="[True]" style="text;html=1;align=center;verticalAlign=middle;whiteSpace=wrap;rounded=0;" vertex="1" parent="7baba1c4bc27f4b0-6">
          <mxGeometry x="70" y="470" width="60" height="30" as="geometry" />
        </mxCell>
        <mxCell id="UrRBeOzWYuMbIGYijwHK-2" value="[False&lt;span style=&quot;background-color: transparent; color: light-dark(rgb(0, 0, 0), rgb(255, 255, 255));&quot;&gt;]&lt;/span&gt;" style="text;html=1;align=center;verticalAlign=middle;whiteSpace=wrap;rounded=0;" vertex="1" parent="7baba1c4bc27f4b0-6">
          <mxGeometry x="70" y="520" width="60" height="30" as="geometry" />
        </mxCell>
        <mxCell id="CLaZZutjWYcp5HNN7W0f-29" value="StepApproved" style="text;html=1;align=center;verticalAlign=middle;whiteSpace=wrap;rounded=0;" parent="7baba1c4bc27f4b0-3" vertex="1">
          <mxGeometry y="480" width="140" height="30" as="geometry" />
        </mxCell>
        <mxCell id="7baba1c4bc27f4b0-4" value=":ApprovePerson" style="shape=umlLifeline;perimeter=lifelinePerimeter;whiteSpace=wrap;html=1;container=1;collapsible=0;recursiveResize=0;outlineConnect=0;rounded=1;shadow=0;comic=0;labelBackgroundColor=none;strokeWidth=1;fontFamily=Verdana;fontSize=12;align=center;fillColor=#f8cecc;strokeColor=#b85450;" parent="1" vertex="1">
          <mxGeometry x="710" y="80" width="120" height="580" as="geometry" />
        </mxCell>
        <mxCell id="7baba1c4bc27f4b0-16" value="" style="html=1;points=[];perimeter=orthogonalPerimeter;rounded=0;shadow=0;comic=0;labelBackgroundColor=none;strokeWidth=1;fontFamily=Verdana;fontSize=12;align=center;fillColor=#f8cecc;strokeColor=#b85450;" parent="7baba1c4bc27f4b0-4" vertex="1">
          <mxGeometry x="55" y="370" width="10" height="200" as="geometry" />
        </mxCell>
        <mxCell id="7baba1c4bc27f4b0-8" value=":User" style="shape=umlLifeline;perimeter=lifelinePerimeter;whiteSpace=wrap;html=1;container=1;collapsible=0;recursiveResize=0;outlineConnect=0;rounded=1;shadow=0;comic=0;labelBackgroundColor=none;strokeWidth=1;fontFamily=Verdana;fontSize=12;align=center;fillColor=#f8cecc;strokeColor=#b85450;" parent="1" vertex="1">
          <mxGeometry x="100" y="80" width="100" height="640" as="geometry" />
        </mxCell>
        <mxCell id="7baba1c4bc27f4b0-9" value="" style="html=1;points=[];perimeter=orthogonalPerimeter;rounded=0;shadow=0;comic=0;labelBackgroundColor=none;strokeWidth=1;fontFamily=Verdana;fontSize=12;align=center;fillColor=#f8cecc;strokeColor=#b85450;" parent="7baba1c4bc27f4b0-8" vertex="1">
          <mxGeometry x="45" y="100" width="10" height="510" as="geometry" />
        </mxCell>
        <mxCell id="7baba1c4bc27f4b0-11" value="Choose Map" style="html=1;verticalAlign=bottom;endArrow=block;entryX=0;entryY=0;labelBackgroundColor=none;fontFamily=Verdana;fontSize=12;edgeStyle=elbowEdgeStyle;elbow=vertical;" parent="1" source="7baba1c4bc27f4b0-9" target="7baba1c4bc27f4b0-10" edge="1">
          <mxGeometry relative="1" as="geometry">
            <mxPoint x="220" y="190" as="sourcePoint" />
          </mxGeometry>
        </mxCell>
        <mxCell id="CLaZZutjWYcp5HNN7W0f-4" value="CreateMap" style="text;html=1;align=center;verticalAlign=middle;whiteSpace=wrap;rounded=0;" parent="1" vertex="1">
          <mxGeometry x="330" y="250" width="60" height="30" as="geometry" />
        </mxCell>
        <mxCell id="CLaZZutjWYcp5HNN7W0f-7" value="MapSelected" style="text;html=1;align=center;verticalAlign=middle;whiteSpace=wrap;rounded=0;" parent="1" vertex="1">
          <mxGeometry x="190" y="410" width="60" height="30" as="geometry" />
        </mxCell>
        <mxCell id="CLaZZutjWYcp5HNN7W0f-1" value="alt" style="shape=umlFrame;whiteSpace=wrap;html=1;pointerEvents=0;fillColor=#f8cecc;strokeColor=#b85450;" parent="1" vertex="1">
          <mxGeometry x="200" y="200" width="210" height="195" as="geometry" />
        </mxCell>
        <mxCell id="CLaZZutjWYcp5HNN7W0f-9" value="" style="endArrow=classic;html=1;rounded=0;entryX=0.323;entryY=0.203;entryDx=0;entryDy=0;entryPerimeter=0;exitX=1.156;exitY=0.669;exitDx=0;exitDy=0;exitPerimeter=0;" parent="1" target="7baba1c4bc27f4b0-28" edge="1" source="7baba1c4bc27f4b0-10">
          <mxGeometry width="50" height="50" relative="1" as="geometry">
            <mxPoint x="300" y="440" as="sourcePoint" />
            <mxPoint x="460" y="440" as="targetPoint" />
          </mxGeometry>
        </mxCell>
        <mxCell id="CLaZZutjWYcp5HNN7W0f-5" value="SelectMap" style="text;html=1;align=center;verticalAlign=middle;whiteSpace=wrap;rounded=0;" parent="1" vertex="1">
          <mxGeometry x="340" y="340" width="60" height="30" as="geometry" />
        </mxCell>
        <mxCell id="CLaZZutjWYcp5HNN7W0f-20" value="" style="endArrow=none;dashed=1;html=1;dashPattern=1 3;strokeWidth=2;rounded=0;exitX=0.019;exitY=0.538;exitDx=0;exitDy=0;exitPerimeter=0;entryX=1;entryY=0.538;entryDx=0;entryDy=0;entryPerimeter=0;" parent="1" source="CLaZZutjWYcp5HNN7W0f-1" target="CLaZZutjWYcp5HNN7W0f-1" edge="1">
          <mxGeometry width="50" height="50" relative="1" as="geometry">
            <mxPoint x="480" y="390" as="sourcePoint" />
            <mxPoint x="530" y="340" as="targetPoint" />
          </mxGeometry>
        </mxCell>
        <mxCell id="CLaZZutjWYcp5HNN7W0f-22" value="" style="endArrow=open;endSize=12;dashed=1;html=1;rounded=0;entryX=0.989;entryY=0.694;entryDx=0;entryDy=0;entryPerimeter=0;" parent="1" source="7baba1c4bc27f4b0-4" target="7baba1c4bc27f4b0-28" edge="1">
          <mxGeometry width="160" relative="1" as="geometry">
            <mxPoint x="750" y="546" as="sourcePoint" />
            <mxPoint x="590" y="370" as="targetPoint" />
          </mxGeometry>
        </mxCell>
        <mxCell id="CLaZZutjWYcp5HNN7W0f-17" value="" style="endArrow=classic;html=1;rounded=0;exitX=1;exitY=0.807;exitDx=0;exitDy=0;exitPerimeter=0;" parent="1" source="7baba1c4bc27f4b0-13" target="7baba1c4bc27f4b0-4" edge="1">
          <mxGeometry width="50" height="50" relative="1" as="geometry">
            <mxPoint x="645" y="490.00000000000006" as="sourcePoint" />
            <mxPoint x="779.5" y="490.00000000000006" as="targetPoint" />
          </mxGeometry>
        </mxCell>
        <mxCell id="7baba1c4bc27f4b0-13" value="" style="html=1;points=[];perimeter=orthogonalPerimeter;rounded=0;shadow=0;comic=0;labelBackgroundColor=none;strokeWidth=1;fontFamily=Verdana;fontSize=12;align=center;fillColor=#f8cecc;strokeColor=#b85450;" parent="1" vertex="1">
          <mxGeometry x="630" y="440" width="10" height="80" as="geometry" />
        </mxCell>
        <mxCell id="CLaZZutjWYcp5HNN7W0f-16" value="" style="endArrow=classic;html=1;rounded=0;entryX=0.1;entryY=0.553;entryDx=0;entryDy=0;entryPerimeter=0;" parent="1" target="7baba1c4bc27f4b0-13" edge="1">
          <mxGeometry width="50" height="50" relative="1" as="geometry">
            <mxPoint x="480" y="484" as="sourcePoint" />
            <mxPoint x="620" y="460" as="targetPoint" />
          </mxGeometry>
        </mxCell>
        <mxCell id="CLaZZutjWYcp5HNN7W0f-15" value="Select Step" style="text;html=1;align=center;verticalAlign=middle;whiteSpace=wrap;rounded=0;" parent="1" vertex="1">
          <mxGeometry x="330" y="440" width="90" height="30" as="geometry" />
        </mxCell>
        <mxCell id="CLaZZutjWYcp5HNN7W0f-26" value="[each step]" style="text;html=1;align=center;verticalAlign=middle;whiteSpace=wrap;rounded=0;" parent="1" vertex="1">
          <mxGeometry x="280" y="470" width="100" height="30" as="geometry" />
        </mxCell>
      </root>
    </mxGraphModel>
  </diagram>
</mxfile>
